<svg width="24" height="24" viewBox="0 0 24 24" fill="none" xmlns="http://www.w3.org/2000/svg">
  <path d="M12.504 0c-.155 0-.315.008-.48.021-4.226.333-3.105 4.807-3.17 6.298-.076 1.092-.3 1.953-1.05 3.02-.885 1.051-2.127 2.75-2.716 4.521-.278.832-.41 1.684-.287 2.489a.424.424 0 00-.11.135c-.26.268-.45.6-.663.839-.199.199-.485.267-.797.4-.313.136-.658.269-.864.68-.09.189-.136.394-.132.602 0 .199.027.4.055.536.058.399.116.8.212 1.137.279 1.073 1.137 1.756 2.05 2.271.967.54 2.063.895 3.13 1.102.615.12 1.233.178 1.85.178.381 0 .761-.03 1.14-.067.751-.074 1.505-.24 2.25-.404.967-.212 1.933-.434 2.825-.81.78-.33 1.433-.696 1.596-1.448.067-.308 0-.616-.067-.91-.2-.906-.67-1.702-1.33-2.286-.109-.109-.24-.199-.36-.3-.06-.05-.109-.11-.159-.165-.05-.058-.1-.117-.149-.165 0-.03.03-.058.03-.087.149-.22.18-.49.259-.732.12-.365.29-.705.29-1.074-.03-.199-.061-.4-.061-.604 0-.29.119-.57.119-.862-.03-.29-.119-.57-.119-.859 0-.23.119-.46.178-.688.03-.11.03-.229.061-.34.149-.485.148-.971.119-1.456-.061-1.07-.448-2.05-.896-3.018-.279-.601-.67-1.14-1.018-1.693-.3-.48-.538-.98-.777-1.468-.18-.36-.42-.73-.601-1.108-.18-.36-.33-.73-.33-1.106 0-.199.03-.4.061-.6.061-.398.061-.796 0-1.193C15.17 1.344 13.644.271 12.504 0z" fill="currentColor"/>
</svg>