<svg xmlns="http://www.w3.org/2000/svg" width="19" height="19" fill="none" viewBox="0 0 19 19"><path fill="#E6E6E6" d="M9 12V10.5C9 10.0833 9.146 9.72933 9.438 9.438C9.73 9.14667 10.084 9.00067 10.5 9H12L9 12ZM9 16.025V13.9L13.9 9H16.025L9 16.025ZM9.05 17.9L17.875 9.05C18.1417 9.11667 18.371 9.24567 18.563 9.437C18.755 9.62833 18.884 9.85767 18.95 10.125L10.1 18.95C9.83333 18.8667 9.61267 18.7377 9.438 18.563C9.26333 18.3883 9.134 18.1673 9.05 17.9ZM11.975 19L19 11.975V14.1L14.1 19H11.975ZM16 19L19 16V17.5C19 17.9167 18.8543 18.271 18.563 18.563C18.2717 18.855 17.9173 19.0007 17.5 19H16ZM9 2C7.05 2 5.396 2.67933 4.038 4.038C2.68 5.39667 2.00067 7.05067 2 9C2 10.2 2.271 11.3 2.813 12.3C3.355 13.3 4.084 14.1167 5 14.75V13C5 12.7167 5.096 12.4793 5.288 12.288C5.48 12.0967 5.71733 12.0007 6 12C6.28267 11.9993 6.52033 12.0953 6.713 12.288C6.90567 12.4807 7.00133 12.718 7 13V17C7 17.2833 6.904 17.521 6.712 17.713C6.52 17.905 6.28267 18.0007 6 18H2C1.71667 18 1.47933 17.904 1.288 17.712C1.09667 17.52 1.00067 17.2827 1 17C0.999333 16.7173 1.09533 16.48 1.288 16.288C1.48067 16.096 1.718 16 2 16H3.35C2.31667 15.1667 1.5 14.146 0.9 12.938C0.3 11.73 0 10.4173 0 9C0 7.75 0.237667 6.57933 0.713 5.488C1.18833 4.39667 1.82967 3.44667 2.637 2.638C3.44433 1.82933 4.39433 1.18767 5.487 0.713C6.57967 0.238333 7.75067 0.000666667 9 0C10.0833 0 11.2417 0.316667 12.475 0.95C13.7083 1.58333 15.3333 3.14167 17.35 5.625C17.5333 5.84167 17.5627 6.07933 17.438 6.338C17.3133 6.59667 17.1007 6.79233 16.8 6.925C16.5333 7.04167 16.2667 7.046 16 6.938C15.7333 6.83 15.5583 6.64233 15.475 6.375C15.1417 5.24167 14.3793 4.22933 13.188 3.338C11.9967 2.44667 10.6007 2.00067 9 2Z"/></svg>