<svg width="24" height="24" viewBox="0 0 24 24" fill="none" xmlns="http://www.w3.org/2000/svg">
  <path d="M3 12.0001V6.88007C3 6.61007 3.17 6.37007 3.43 6.32007L10.5 4.98007C10.8 4.92007 11.1 5.14007 11.1 5.45007V11.1001H3V12.0001ZM3 17.1201C3 17.3901 3.17 17.6301 3.43 17.6801L10.5 19.0201C10.8 19.0801 11.1 18.8601 11.1 18.5501V12.9001H3V17.1201ZM12.9 11.1001V4.90007C12.9 4.59007 13.2 4.37007 13.5 4.43007L21.57 6.32007C21.83 6.37007 22 6.61007 22 6.88007V12.0001H12.9ZM12.9 18.5501C12.9 18.8601 13.2 19.0801 13.5 19.0201L21.57 17.6801C21.83 17.6301 22 17.3901 22 17.1201V12.9001H12.9V18.5501Z" fill="currentColor"/>
</svg>