<?xml version="1.0" encoding="UTF-8"?>
<svg id="Layer_1" xmlns="http://www.w3.org/2000/svg" version="1.1" viewBox="0 0 143 44" width="143" height="44">
<defs>
    <style>
      .st0 {
        fill: #fff;
      }
    </style>
</defs>
  <!-- Scaled version of the kreo logo for 143x44 dimensions -->
  <g transform="scale(0.067, 0.067)">
    <path class="st0" d="M1177.8,0l30.2,4.3c124.3,22.8,217.8,135.2,189.5,264.8-21.7,99.2-135,101.4-217.1,107.8h-200.8c0,.1-1.6,2.4-1.6,2.4,10.2,95,74,163.4,169.6,175.4,74.2,9.3,156.1-8,214.8-54.9,4.7-3.8,6.9-9.5,14.5-8v59.5c0,1.2-2.2,9.3-2.7,11.3-16.2,60-94.3,83.5-148.9,90l-32.4,3.1c-16.4-.7-33.6.9-50,0-151.1-8.5-257.4-126.6-272.9-273.4C850.6,200.3,947.4,14.9,1144.3,1l2.4-1h31ZM976.8,291.9c31.5-.8,63-.4,94.5-1,49.7-.8,105.7-.2,154.8-7.2,58.3-8.3,82.1-24.5,68.3-88-17.1-78.5-97-106.7-169.9-96.5s-128.6,69.8-143.1,138.8c-3.7,17.7-4.1,35.8-4.7,53.8Z"/>
    <path class="st0" d="M1738.6,655.7h-43c-152.2-10.6-255.5-127.9-269.9-276.4-16.9-174.5,62.7-358.4,255.4-376.3,172-16,294.7,90.1,316.3,258.5,23,179.4-54.8,382.2-258.8,394.2ZM1695.4,103.2c-143.1,7.5-177.4,159.7-157.4,277.8,15.6,92.6,73,166.7,172.2,172.7,153.7,9.4,192.6-136.6,179.4-262.4-11.3-108-66.3-186.7-182.4-188.5l-11.7.3Z"/>
    <path class="st0" d="M2131.6,573.7c.6,5,.6,17,0,22-5.5,45.8-65.9,65.9-101.4,37-49.7-40.4-14.4-116.6,46.9-110.9,24.6,2.3,51.7,27.1,54.5,52Z"/>
    <path class="st0" d="M646.9,643.7h-56.5c-25.6,0-49.8-34.6-50.5-58.5.4-102.7-4-206.2-1.1-308.9,2.7-95,28.8-201.8,122.7-245.2,48-22.2,132.3-27.7,176.2,5.4s27,66.9,28.1,106.9c-1.5,8.1-13-3.3-15.9-5.1-33.1-20.9-72.6-28.1-111.5-23.2-83.3,10.4-87.9,88.3-91.6,156.3v372.4Z"/>
    <path class="st0" d="M84,10v270.9c1.9.2,3.5-.6,5.3-1.2,38.9-13.8,82.2-33.9,120.7-50.3,41.1-17.5,88.5-36.6,126.7-59.3,56.4-33.5,65.5-95.9,68.3-156.6l1.5-2.5h83.5c.1,28.5-2.3,57.2-8.5,85-50.6,228.8-309.8,187.5-449.9,319.8-10.1,9.5-17.7,20.3-27.1,29.9s-1.4,2.3-2.9,2.1L2.5,10h81.5Z"/>
    <path class="st0" d="M2,648.7c-7.7-120.1,94.7-222.1,209.6-237.7,142.8-19.4,279.2,90.2,277.1,236.6-4.4,1.2-8.8,2.8-13.3,3.2-21.5,1.8-45.6-1.3-67.4-.1-9.4-62.3-32.9-111.8-93.1-137.3-108.7-46-193.2,1.1-226.2,109.7-2.6,8.5-4.2,17.7-7.2,25.8H2Z"/>
  </g>
</svg> 